# xmcd
#
# Track frame offsets:
#	150
#	17365
#	42735
#	74643
#	102840
#	140823
#
# Disc length: 2461 seconds
#
# Revision: 0
# Processed by: cddbd v1.4PL0 Copyright (c) Steve Scherf et al.
# Submitted via: EasyCDDAExtractor 4.5.2.1
#
DISCID=56099b06
DTITLE=Blue By Nature - Live At The Lake (Disc2)
DYEAR=1997
DGENRE=Blues
TTITLE0=I Got A Worry
TTITLE1=You Got Me Workin'
TTITLE2=Steal Away
TTITLE3=You Got A Way
TTITLE4=Whatcha Want
TTITLE5=Right The Wrong
EXTD=
EXTT0=
EXTT1=
EXTT2=
EXTT3=
EXTT4=
EXTT5=
PLAYORDER=
